<svg id="Capa_1" data-name="Capa 1" xmlns="http://www.w3.org/2000/svg" viewBox="0 0 342 342"><defs><style>.cls-1{fill:#7806f1;}.cls-2{fill:#fff;}</style></defs><rect class="cls-1" x="11" y="11" width="320" height="320" rx="160"/><path class="cls-2" d="M243.16,116q-24.1,72.42-48.2,144.84a23,23,0,0,1-2.65,5.85,12.47,12.47,0,0,1-21.48-1.29c-4.2-8.06-8.33-16.16-12.49-24.24-5-9.64-9.92-19.3-15-28.91a2.51,2.51,0,0,1,.53-3.53q48.79-48.69,97.52-97.45c.46-.46.8-1.29,1.74-.9Z"/><path class="cls-2" d="M235.55,102.79c.41,1-.52,1.36-1,1.85q-26.92,27-53.87,53.9-21.69,21.69-43.34,43.4c-1.29,1.3-2.23,1.37-3.8.56q-26.1-13.56-52.28-27c-5.31-2.73-7.88-7.18-7.46-13,.38-5.37,3.86-8.68,8.66-10.47,5.78-2.14,11.68-4,17.53-5.92l127-42.32c1-.33,2-.64,3-1Z"/></svg>